<svg width="32" height="32" viewBox="0 0 32 32" fill="none" xmlns="http://www.w3.org/2000/svg">
<path d="M27 4C26.235 4 25.483 4.3 24.906 4.876L15 14.75L14.78 14.97L14.72 15.283L14.03 18.783L13.72 20.251L15.187 19.941L18.687 19.251L19 19.191L19.22 18.971L29.094 9.065C29.5075 8.65001 29.789 8.12191 29.903 7.54724C30.0169 6.97257 29.9582 6.37703 29.7343 5.83565C29.5104 5.29426 29.1313 4.83126 28.6447 4.50495C28.1581 4.17865 27.5859 4.00365 27 4.002V4ZM27 5.94C27.235 5.94 27.464 6.06 27.688 6.283C28.134 6.729 28.134 7.211 27.688 7.658L18 17.344L16.28 17.688L16.625 15.968L26.313 6.28C26.536 6.057 26.765 5.937 27 5.937V5.94ZM6 7.97V27.97H26V14.782L24 16.782V25.97H8V9.97H17.188L19.188 7.97H6Z" fill="#292929"/>
</svg>
