<svg width="36" height="36" viewBox="0 0 36 36" fill="none" xmlns="http://www.w3.org/2000/svg">
<path d="M18 2.25C14.885 2.25 11.8398 3.17372 9.24978 4.90435C6.6597 6.63499 4.64098 9.0948 3.4489 11.9727C2.25682 14.8507 1.94492 18.0175 2.55264 21.0727C3.16036 24.1279 4.6604 26.9343 6.86307 29.1369C9.06575 31.3396 11.8721 32.8397 14.9273 33.4474C17.9825 34.0551 21.1493 33.7432 24.0273 32.5511C26.9052 31.359 29.365 29.3403 31.0957 26.7502C32.8263 24.1602 33.75 21.1151 33.75 18C33.75 13.8228 32.0906 9.81677 29.1369 6.86307C26.1832 3.90937 22.1772 2.25 18 2.25V2.25ZM18 31.5C15.33 31.5 12.7199 30.7082 10.4998 29.2248C8.27975 27.7414 6.54942 25.633 5.52763 23.1662C4.50585 20.6994 4.23851 17.985 4.75941 15.3663C5.28031 12.7475 6.56606 10.3421 8.45407 8.45406C10.3421 6.56605 12.7475 5.2803 15.3663 4.7594C17.985 4.2385 20.6994 4.50584 23.1662 5.52763C25.633 6.54941 27.7414 8.27974 29.2248 10.4998C30.7082 12.7199 31.5 15.33 31.5 18C31.5 21.5804 30.0777 25.0142 27.5459 27.5459C25.0142 30.0777 21.5804 31.5 18 31.5Z" fill="black"/>
<path d="M16.875 9H19.125V21.375H16.875V9ZM18 24.75C17.6662 24.75 17.34 24.849 17.0625 25.0344C16.785 25.2198 16.5687 25.4834 16.441 25.7917C16.3132 26.1001 16.2798 26.4394 16.3449 26.7667C16.41 27.0941 16.5708 27.3947 16.8068 27.6307C17.0428 27.8667 17.3434 28.0275 17.6708 28.0926C17.9981 28.1577 18.3374 28.1243 18.6458 27.9965C18.9541 27.8688 19.2177 27.6525 19.4031 27.375C19.5885 27.0975 19.6875 26.7713 19.6875 26.4375C19.6875 25.9899 19.5097 25.5607 19.1932 25.2443C18.8768 24.9278 18.4476 24.75 18 24.75Z" fill="black"/>
</svg>
